<svg xmlns="http://www.w3.org/2000/svg" xmlns:xlink="http://www.w3.org/1999/xlink" width="100" height="100" id="code"><defs><linearGradient id="a"><stop offset="0" stop-color="#000092"></stop><stop offset="1" stop-color="#ff00f3"></stop></linearGradient><linearGradient id="b" x1="2" x2="28" y1="17" y2="17" gradientUnits="userSpaceOnUse" xlink:href="#a"></linearGradient></defs><path fill="url(#b)" d="M2.5 3a.5.5 0 0 0-.5.5v22a.5.5 0 0 0 .5.5h4.25v-1H3V8h24v10.236c.01.048.034.09.04.139.277-.227.62-.34.96-.348V3.5a.5.5 0 0 0-.5-.5h-25zM3 4h24v3H3V4zm1.5 1a.5.5 0 0 0-.5.5.5.5 0 0 0 .5.5.5.5 0 0 0 .5-.5.5.5 0 0 0-.5-.5zm2 0a.5.5 0 0 0-.5.5.5.5 0 0 0 .5.5.5.5 0 0 0 .5-.5.5.5 0 0 0-.5-.5zm2 0a.5.5 0 0 0-.5.5.5.5 0 0 0 .5.5.5.5 0 0 0 .5-.5.5.5 0 0 0-.5-.5zm9.02 5a.5.5 0 0 0-.047.002.5.5 0 0 0-.4.24L12.08 18.23a.5.5 0 1 0 .848.53l4.992-7.989a.5.5 0 0 0-.4-.771zm-7.036 1a.5.5 0 0 0-.343.152l-2.963 2.965a.5.5 0 0 0-.102.12.5.5 0 0 0-.02.033.5.5 0 0 0-.001.001.5.5 0 0 0-.006.014.5.5 0 0 0-.012.024.5.5 0 0 0-.01.027.5.5 0 0 0-.007.023.5.5 0 0 0-.006.022.5.5 0 0 0-.004.02.5.5 0 0 0-.002.013.5.5 0 0 0 .178.479l2.955 2.957a.5.5 0 1 0 .707-.707L8.207 14.5l2.64-2.64a.5.5 0 0 0-.363-.86zm9.016 0a.5.5 0 0 0-.348.86l2.641 2.64-2.64 2.643a.5.5 0 1 0 .706.707l2.961-2.963a.5.5 0 0 0 .028-.744l-.002-.002-2.987-2.989A.5.5 0 0 0 19.5 11zm3.908 7a.5.5 0 0 0-.5.5v.895c-.31.096-.608.217-.896.367l-.63-.627a.5.5 0 0 0-.706 0l-1.543 1.54a.5.5 0 0 0 0 .708l.63.63c-.15.289-.276.587-.372.897H18.5a.5.5 0 0 0-.5.5v2.182a.5.5 0 0 0 .5.5h.893c.096.31.218.61.369.898l-.63.63a.5.5 0 0 0 0 .706l1.544 1.541a.5.5 0 0 0 .707 0l.63-.629c.288.15.586.273.895.37v.892a.5.5 0 0 0 .5.5h2.184a.5.5 0 0 0 .5-.5v-.893c.31-.096.608-.217.896-.367l.63.627a.5.5 0 0 0 .706 0l1.543-1.54a.5.5 0 0 0 0-.708l-.63-.63c.15-.289.276-.587.372-.897h.891a.5.5 0 0 0 .5-.5V23.41a.5.5 0 0 0-.5-.5h-.893a5.384 5.384 0 0 0-.369-.898l.63-.63a.5.5 0 0 0 0-.706l-1.544-1.541a.5.5 0 0 0-.707 0l-.63.629a5.373 5.373 0 0 0-.895-.37V18.5a.5.5 0 0 0-.5-.5h-2.184zm.5 1h1.184v.719a.5.5 0 0 0 .388.488c.484.11.944.301 1.364.564a.5.5 0 0 0 .619-.07l.508-.506.836.834-.506.506a.5.5 0 0 0-.07.617c.262.421.451.884.56 1.368a.5.5 0 0 0 .488.39H30v1.182h-.719a.5.5 0 0 0-.488.388c-.11.484-.3.946-.564 1.366a.5.5 0 0 0 .07.619l.508.508-.836.834-.506-.504a.5.5 0 0 0-.617-.07c-.421.262-.884.451-1.368.56a.5.5 0 0 0-.388.486V30h-1.184v-.719a.5.5 0 0 0-.388-.486 4.4 4.4 0 0 1-1.364-.565.5.5 0 0 0-.619.07l-.508.507-.836-.834.506-.506a.5.5 0 0 0 .07-.62 4.403 4.403 0 0 1-.56-1.365.5.5 0 0 0-.488-.39H19V23.91h.719a.5.5 0 0 0 .488-.389c.11-.483.301-.945.564-1.365a.5.5 0 0 0-.07-.619l-.508-.508.836-.834.506.504a.5.5 0 0 0 .617.07c.421-.262.884-.453 1.368-.562a.5.5 0 0 0 .388-.484V19zm-12.283 1.73a.5.5 0 0 0-.5.5v.512c-.144.05-.285.106-.422.172l-.361-.36a.5.5 0 0 0-.707 0l-1.06 1.061a.5.5 0 0 0 0 .707l.36.362a3.853 3.853 0 0 0-.175.421h-.51a.5.5 0 0 0-.5.5v1.5a.5.5 0 0 0 .5.5h.512c.05.145.105.285.172.422l-.36.362a.5.5 0 0 0 0 .707l1.06 1.06a.5.5 0 0 0 .708 0l.361-.361c.138.067.278.124.422.174v.511a.5.5 0 0 0 .5.5h1.5a.5.5 0 0 0 .5-.5v-.511a3.95 3.95 0 0 0 .422-.174l.361.361a.5.5 0 0 0 .707 0l1.06-1.06a.5.5 0 0 0 0-.71l-.359-.359c.067-.137.124-.277.174-.422h.51a.5.5 0 0 0 .5-.5v-1.5a.5.5 0 0 0-.5-.5h-.512a3.855 3.855 0 0 0-.174-.421l.362-.362a.5.5 0 0 0 0-.707l-1.06-1.06a.5.5 0 0 0-.708 0l-.361.361a3.797 3.797 0 0 0-.422-.176v-.51a.5.5 0 0 0-.5-.5h-1.5zm.5 1h.5v.338a.5.5 0 0 0 .389.487c.315.072.617.197.89.369a.5.5 0 0 0 .62-.07l.238-.239.353.354-.238.236a.5.5 0 0 0-.07.62c.17.274.296.574.367.89a.5.5 0 0 0 .486.39H16v.5h-.338a.5.5 0 0 0-.488.39 2.867 2.867 0 0 1-.367.888.5.5 0 0 0 .07.62l.238.24-.353.35-.237-.236a.5.5 0 0 0-.619-.07 2.872 2.872 0 0 1-.89.365.5.5 0 0 0-.391.489v.34h-.5v-.338a.5.5 0 0 0-.389-.489 2.881 2.881 0 0 1-.89-.367.5.5 0 0 0-.62.068l-.238.239-.353-.354.238-.238a.5.5 0 0 0 .07-.617 2.876 2.876 0 0 1-.367-.89.5.5 0 0 0-.486-.391h-.34v-.5h.338a.5.5 0 0 0 .488-.39c.072-.314.196-.616.367-.89a.5.5 0 0 0-.07-.619l-.238-.238.353-.354.237.237a.5.5 0 0 0 .619.07c.274-.171.575-.294.89-.365a.5.5 0 0 0 .391-.487v-.338zm12.375.272A2.51 2.51 0 0 0 22 24.5a2.51 2.51 0 0 0 2.5 2.5 2.51 2.51 0 0 0 2.5-2.5 2.51 2.51 0 0 0-2.5-2.498zm0 1c.826 0 1.5.672 1.5 1.498s-.674 1.5-1.5 1.5-1.5-.674-1.5-1.5.674-1.498 1.5-1.498zm-12.125.707c-.903 0-1.646.743-1.646 1.646 0 .904.743 1.645 1.646 1.645.903 0 1.646-.742 1.646-1.645s-.743-1.646-1.646-1.646zm0 1a.645.645 0 1 1 0 1.291.645.645 0 1 1 0-1.291z" color="#000"
 font-family="sans-serif" font-weight="400" overflow="visible" style="line-height:normal;text-indent:0;text-align:start;text-decoration-line:none;text-decoration-style:solid;text-decoration-color:#000;text-transform:none;block-progression:tb;isolation:auto;mix-blend-mode:normal"></path></svg>