<svg xmlns="http://www.w3.org/2000/svg" viewBox="0 0 64 64" id="startup"><path fill="#4aa5ff" d="M38.00528 40.61311c.6873 1.60916 1.97788 5.23343 1.41183 9.88279-.62211 5.10956-3.13111 8.53662-4.23548 9.88279 1.29825-.33331 9.81898-2.67436 14.11827-11.29462 3.56399-7.14595 1.87327-13.88742 1.41183-15.5301-4.2355 2.35301-8.47094 4.70613-12.70644 7.05914zM23.88701 26.49484c-1.60916-.6873-5.23343-1.97788-9.88279-1.41183-5.10956.62211-8.53662 3.13111-9.88279 4.23548.33331-1.29825 2.67436-9.81898 11.29462-14.11827 7.14595-3.56399 13.88742-1.87327 15.5301-1.41183-2.35301 4.2355-4.70613 8.47094-7.05914 12.70644z"></path><path fill="#e6f3ff" d="M61.47998,12.98999c-.01996,1.08002-.10999,2.23999-.25,3.44-.01996,.19-.04999,.38-.07996,.57001-.67004,4.67999-2.37,10.06-6.20001,15.14001-7.67999,10.16998-18.70001,12.27997-21.17999,12.70996l-14.12-14.12c.42999-2.47998,2.53998-13.5,12.70996-21.17999,4.91003-3.70001,10.09003-5.40997,14.65002-6.13,.35999-.04999,.70996-.09998,1.06-.15002,1.02002-.12,2-.19995,2.92999-.22998,4.98999-.21002,8.69,.65002,9.59003,.87,.20996,.87,1.01996,4.35004,.88995,9.08002Z"></path><circle cx="42" cy="22" r="8" fill="#e6f3ff"></circle><circle cx="42" cy="22" r="4" fill="#4aa5ff"></circle><path fill="#4aa5ff" d="M19.70709,55.48016c-2.51917,2.51917-6.42261,3.98169-7.64502,4.31812-.46143,.12698-.84851,.21332-1.1123,.26788,.69049-1.79156,1.38104-3.5831,2.07153-5.37466-.7265,.97275-2.04968,2.49014-4.14313,3.74915-2.20587,1.3266-4.27527,1.76987-5.49951,1.93805-.177-1.3497-.29639-3.34387,0-5.71494,.4082-3.26569,1.63287-7.34781,4.89856-10.61349,3.15625-3.1563,8.27362-3.1563,11.42987,0,3.15631,3.15628,3.15631,8.27362,0,11.4299Z"></path><ellipse cx="16.441" cy="47.316" fill="#e6f3ff" rx="4.618" ry="3.464" transform="rotate(-45 16.441 47.316)"></ellipse><path fill="#4aa5ff" d="M31.43934,25.93934h6v4.24264c0,1.65574-1.34425,3-3,3h0c-1.65574,0-3-1.34425-3-3v-4.24264h0Z" transform="rotate(45 34.44 29.56)"></path><path fill="#e6f3ff" d="M61.47998,12.98999c-.01996,1.08002-.10999,2.23999-.25,3.44-.01996,.19-.04999,.38-.07996,.57001h-.15002c-7.58002,0-13.77002-6.04999-13.98999-13.58002,.35999-.04999,.70996-.09998,1.06-.15002,1.02002-.12,2-.19995,2.92999-.22998,4.98999-.21002,8.69,.65002,9.59003,.87,.20996,.87,1.01996,4.35004,.88995,9.08002Z"></path><path fill="#4aa5ff" d="M61.47998,12.98999c-.15997,.01001-.32001,.01001-.47998,.01001-5.51001,0-9.97998-4.46002-10-9.96002,4.98999-.21002,8.69,.65002,9.59003,.87,.20996,.87,1.01996,4.35004,.88995,9.08002Z"></path><path fill="#21257c" d="M33 22c0 4.96289 4.03711 9 9 9s9-4.03711 9-8.99994c-.49213-11.9364-17.50604-11.93988-18-.00006zm2 0c0-3.85938 3.14062-7 7-7s7 3.14062 7 6.99988c-.35107 9.27112-13.64752 9.27368-14 .00012zM7.57031 43.34277c-4.18788 3.81834-6.08003 11.73741-5.18239 17.16707.05392.48589.50411.87706.99099.86907 2.5495-.30017 4.97583-1.28119 7.06055-2.76953 0 0-.42285 1.09766-.42285 1.0976-.29791.70782.39111 1.51788 1.13672 1.33893 21.45593-4.73187 9.59703-28.25339-3.58301-17.70312zm11.42969 11.43066c-1.93652 1.93555-4.8252 3.23438-6.40332 3.80078l1.3584-3.52344c.42017-1.06061-1.06366-1.87994-1.73438-.95801-1.92719 2.59882-4.79486 4.43323-7.95898 5.11426-.57397-5.38257 1.95355-16.26123 9.73047-16.52148 6.19647-.07159 9.47113 7.68555 5.00781 12.08789z"></path><path fill="#21257c" d="M62.12683,6.71228c-.16486-1.32935-.367-2.41943-.56531-3.0365-.08691-.36426-.37109-.64844-.73438-.73712-.73668-.27336-2.865-.58658-4.42351-.71544-10.38709-1.36818-21.96919,2.77467-28.42091,9.96214C14.72577,10.36011,5.27557,20.2348,3.15039,29.07422c-.25759,.90066,.89851,1.6385,1.60555,1.01869,3.03837-2.74037,9.30333-4.98946,14.91142-3.86458-.45203,1.46625-.78888,2.91919-1.00232,4.33124-.07482,.3862,.11076,.75454,.40186,1.00146l-2.11377,2.11377c-1.16992,1.16992-1.16992,3.07227,0,4.24219l9.51758,9.51758c1.16937,1.16942,3.07282,1.16941,4.24219,0l2.11377-2.11377c.24382,.27038,.55767,.54837,.94289,.52878,1.46422-.20249,2.97575-.54007,4.50371-1.00895,1.12128,5.60669-1.12177,11.85529-3.86597,14.90344-.54468,.61786-.04071,1.66254,.7724,1.6358,8.89429-1.89331,18.99774-11.58765,17.1347-24.87207,7.62812-6.89167,11.57063-18.88625,9.81244-29.79553Zm-5.32129-2.44684c.97375,.12201,1.95526,.27332,2.94934,.4787,.72735,3.54592,.9558,7.71873,.51953,11.23535-6.33887-.35938-11.58203-5.39844-12.20801-11.69922,2.49011-.40411,6.08417-.2934,8.73914-.01483ZM6.07031,26.74023c3.15417-7.87354,11.36346-13.38971,20.2774-12.73236-2.67474,3.20337-4.6911,6.76514-6.02618,10.31641-4.72742-1.01349-10.67102,.11267-14.25122,2.41595Zm31.68945,31.68945c2.3006-3.57544,3.4303-9.51862,2.41815-14.24438,3.54504-1.33228,7.10785-3.3559,10.31329-6.0379,.65686,8.89893-4.83502,17.11676-12.73145,20.28229Zm1.08899-15.89551c-1.53049,.50653-3.12099,.95602-4.74329,1.2373-.10767-.10905-13.14959-13.15123-13.37695-13.37695,2.30865-12.72335,12.09824-23.27173,25.36926-25.81854,.7467,7.28564,6.59949,12.90973,13.90863,13.37927-2.1073,11.79102-10.48657,20.9173-21.15765,24.57892Z"></path></svg>